<svg version="1.1" id="Layer_1" xmlns="http://www.w3.org/2000/svg" x="0" y="0" viewBox="0 0 475.6 358.1" xml:space="preserve">
  <defs/>
  <style>
    .st0{fill:#444}.st1{fill:#f44c00}
  </style>
  <g id="Layer_2_1_">
    <g id="Layer_1-2">
      <path d="M475.6 309.1v-.7"/>
      <path class="st0" d="M41.8 336.6H12c.8 9.7 5.4 12.9 11.7 12.9 4.2 0 7.7-1.3 11.9-4.2l4.8 6.6c-4.9 4.1-11.2 6.4-17.6 6.4-14.9-.2-22.8-10-22.8-25 0-14.5 7.7-25.5 21.1-25.5 13.3 0 21 9 21 24 0 1.6-.2 3.5-.3 4.8zm-11.1-8c0-7.8-2.8-12.5-9.3-12.5-5.4 0-8.8 3.6-9.4 13h18.7v-.5zM98.1 322.3v34.5H86.6v-32.7c0-5.9-2.2-7.6-5.8-7.6-4.1 0-7.2 2.8-10 7.2v33.1H59.2v-47.6h10l.9 6.2c3.7-4.8 8.5-7.6 14.5-7.6 8.6.1 13.5 5.4 13.5 14.5zM157.1 300.9l-5.9 6.8c-4.5-3.7-8.8-5.3-13.9-5.3-5.6 0-9.6 2.5-9.6 7.4 0 4.5 2.4 6.5 12.8 9.7 10.9 3.4 18.4 7.9 18.4 19.6 0 11.2-8.7 19.1-23.6 19.1-9.9 0-17.3-3.5-22.4-8.5l6.1-6.8c4.6 3.9 9.5 6.2 16 6.2 6.7 0 11.4-3.2 11.4-9.3 0-5.2-2.6-7.6-12.3-10.5-13-4-18.7-9.3-18.7-18.7 0-10.4 8.9-17.2 21.1-17.2 9.1-.1 15.1 2.6 20.6 7.5zM221.1 336.5c0 12.5-8 21.7-23.2 21.7s-23-8.9-23-21.7v-41.9h11.9v41.2c0 8.7 3.5 13 11.2 13s11.2-4.3 11.2-13v-41.2h12l-.1 41.9zM261 331.9h-7.6v24.9h-11.9v-62.2H260c16.3 0 24.6 5.9 24.6 18.3 0 8.5-4.1 13.5-12.6 16.8l16.3 27.1h-13.7L261 331.9zm-7.6-8.6h7.4c7.4 0 11.5-3 11.5-10.4 0-6.8-3.9-9.6-12.5-9.6h-6.4v20zM338.1 303.4h-22.9v17.4h20v8.8h-20v18.3h24.6v8.9h-36.4v-62.2h36.1l-1.4 8.8z"/>
    </g>
  </g>
  <path class="st1" d="M475.6 41.8c0-22.4-18.2-40.6-40.6-40.6-22.4 0-40.6 18.2-40.6 40.6v124l75.2 121.9c3.8 6.2 5.9 13.3 6 20.6V41.8z"/>
  <path d="M298 12.2l.4.4c2.4 2.3 4.6 5 6.3 7.9l3.2 5.2c-6-15.5-21-25.7-37.8-25.7H127.7C105.2 0 87 18.2 87 40.6c0 22.4 18.2 40.6 40.6 40.6h119.1l-11.2-18.1c-9.6-15.6-7.6-35.8 5-49.1 14.6-15.5 38.5-17 54.9-4m-37.8-7.6c.5-.2 1.1-.3 1.6-.5-.6.2-1.1.4-1.6.5zm-1.8.6c.1 0 .1 0 .2-.1-.1.1-.2.1-.2.1z" fill="#f43300"/>
  <path d="M282 138.3c-3.8-1.2-7.8-1.7-11.9-1.7H127.7c-22.4 0-40.6 18.2-40.6 40.6 0 22.4 18.2 40.6 40.6 40.6h142.5c19.8 0 36.6-14.3 40-33.7L282 138.3z" fill="#c91500"/>
  <path d="M298.4 12.6l-.4-.4c-13.4-12.6-33.6-14.7-49.3-5-19.1 11.8-25 36.8-13.2 55.9l11.2 18.1 35.2 57.1c.1 0 .3.1.4.1-.1 0-.2-.1-.3-.1l28.2 45.8V41.2c0-16.1-4.2-21-11.8-28.6z" fill="#ff4d00"/>
  <path d="M475.5 308.4v2.4c0 .5 0 .9-.1 1.3s-.1.7-.1 1c-.1.7-.2 1.4-.3 2 0 .3-.1.5-.1.8l-.1.6c-.1.8-.3 1.6-.5 2.5l-.3 1.2c-.1.4-.2.8-.4 1.2v.1c-.1.4-.3.8-.4 1.2-.3.7-.5 1.4-.8 2.1-.2.5-.4 1-.6 1.4s-.3.7-.5 1.1c-.5.9-1 1.9-1.5 2.8-.3.6-.7 1.1-1 1.6-.2.3-.4.6-.6.8s-.4.5-.6.8l-.6.8c-.8 1-1.7 2-2.5 2.9-.2.2-.4.5-.7.7l-.7.7c-.5.5-1 .9-1.5 1.3-1 .9-2 1.7-3.1 2.4-.7.5-1.4 1-2.2 1.5-.4.3-.8.5-1.2.7-.8.5-1.6.9-2.5 1.3l-1.4.6c-.4.2-.9.4-1.3.5-.4.2-.9.3-1.3.5s-.9.3-1.3.5c-1.1.4-2.3.7-3.4.9l-.7.1c-.7.1-1.3.3-2 .4-.3.1-.7.1-1 .1-.6.1-1.2.1-1.8.2h-.6c-.4 0-.9.1-1.4.1H433.8c-.4 0-.9 0-1.3-.1l-1.2-.1c-.9-.1-1.7-.2-2.6-.3-3.4-.5-6.6-1.5-9.8-2.8-.4-.2-.8-.3-1.2-.5-.7-.3-1.4-.7-2.1-1.1s-1.2-.7-1.8-1l-.7-.5c-1.2-.7-2.3-1.5-3.3-2.4-1-.8-1.9-1.6-2.8-2.5-.2-.2-.5-.4-.7-.7s-.5-.5-.7-.7c-.5-.5-.9-1-1.3-1.5-.9-1-1.7-2-2.4-3.1-.5-.7-1-1.4-1.5-2.2l-.3-.5c-3.8-6.3-5.7-13.5-5.7-20.8V165.8l75.2 121.9c3.8 6.3 5.8 13.4 5.9 20.7z" fill="#c92a00"/>
  <path class="st1" d="M308 25.7l86.4 140.1V309c0 7.3 1.9 14.5 5.7 20.8L310.2 184 308 25.7z"/>
</svg>