<svg xmlns="http://www.w3.org/2000/svg" viewBox="0 0 339.8 64.9">
  <defs/>
  <g data-name="Layer 2">
    <g data-name="Layer 1">
      <g data-name="Layer 2">
        <path d="M41.8 43.2H12c.8 9.7 5.4 12.9 11.7 12.9 4.2 0 7.7-1.3 11.9-4.2l4.8 6.6a27.6 27.6 0 01-17.6 6.4C7.9 64.7 0 54.9 0 39.9c0-14.5 7.7-25.5 21.1-25.5s21 9 21 24c0 1.6-.2 3.5-.3 4.8zm-11.1-8c0-7.8-2.8-12.5-9.3-12.5-5.4 0-8.8 3.6-9.4 13h18.7zm67.4-6.3v34.5H86.6V30.7c0-5.9-2.2-7.6-5.8-7.6-4.1 0-7.2 2.8-10 7.2v33.1H59.2V15.8h10l.9 6.2c3.7-4.8 8.5-7.6 14.5-7.6 8.6.1 13.5 5.4 13.5 14.5zm59-21.4l-5.9 6.8c-4.5-3.7-8.8-5.3-13.9-5.3-5.6 0-9.6 2.5-9.6 7.4 0 4.5 2.4 6.5 12.8 9.7 10.9 3.4 18.4 7.9 18.4 19.6 0 11.2-8.7 19.1-23.6 19.1-9.9 0-17.3-3.5-22.4-8.5l6.1-6.8c4.6 3.9 9.5 6.2 16 6.2 6.7 0 11.4-3.2 11.4-9.3 0-5.2-2.6-7.6-12.3-10.5-13-4-18.7-9.3-18.7-18.7 0-10.4 8.9-17.2 21.1-17.2 9.1-.1 15.1 2.6 20.6 7.5zm64 35.6c0 12.5-8 21.7-23.2 21.7s-23-8.9-23-21.7V1.2h11.9v41.2c0 8.7 3.5 13 11.2 13s11.2-4.3 11.2-13V1.2h12l-.1 41.9zm39.9-4.6h-7.6v24.9h-11.9V1.2H260c16.3 0 24.6 5.9 24.6 18.3 0 8.5-4.1 13.5-12.6 16.8l16.3 27.1h-13.7zm-7.6-8.6h7.4c7.4 0 11.5-3 11.5-10.4 0-6.8-3.9-9.6-12.5-9.6h-6.4zM338.1 10h-22.9v17.4h20v8.8h-20v18.3h24.6v8.9h-36.4V1.2h36.1l-1.4 8.8z" fill="#444" data-name="Layer 1-2"/>
      </g>
    </g>
  </g>
</svg>