<svg version="1.1" id="Layer_1" xmlns="http://www.w3.org/2000/svg" x="0" y="0" viewBox="0 0 390.6 358.1" xml:space="preserve"><style>.st0{fill:#f44c00}</style><g id="Layer_2_1_"><path d="M390.6 309.1v-.7" id="Layer_1-2"/></g><path class="st0" d="M390.6 41.8c0-22.4-18.2-40.6-40.6-40.6s-40.6 18.2-40.6 40.6v124l75.2 121.9c3.8 6.2 5.9 13.3 6 20.6V41.8z"/><path d="M213 12.2l.4.4c2.4 2.3 4.6 5 6.3 7.9l3.2 5.2c-6-15.5-21-25.7-37.8-25.7H42.7C20.2 0 2 18.2 2 40.6s18.2 40.6 40.6 40.6h119.1l-11.2-18.1c-9.6-15.6-7.6-35.8 5-49.1 14.6-15.5 38.5-17 54.9-4m-37.8-7.6c.5-.2 1.1-.3 1.6-.5-.6.2-1.1.4-1.6.5zm-1.8.6c.1 0 .1 0 .2-.1-.1.1-.2.1-.2.1z" fill="#f43300"/><path d="M197 138.3c-3.8-1.2-7.8-1.7-11.9-1.7H42.7c-22.4 0-40.6 18.2-40.6 40.6s18.2 40.6 40.6 40.6h142.5c19.8 0 36.6-14.3 40-33.7L197 138.3z" fill="#c91500"/><path d="M213.4 12.6l-.4-.4c-13.4-12.6-33.6-14.7-49.3-5-19.1 11.8-25 36.8-13.2 55.9l11.2 18.1 35.2 57.1c.1 0 .3.1.4.1-.1 0-.2-.1-.3-.1l28.2 45.8V41.2c0-16.1-4.2-21-11.8-28.6z" fill="#ff4d00"/><path d="M390.5 308.4v2.4c0 .5 0 .9-.1 1.3s-.1.7-.1 1c-.1.7-.2 1.4-.3 2 0 .3-.1.5-.1.8l-.1.6c-.1.8-.3 1.6-.5 2.5l-.3 1.2c-.1.4-.2.8-.4 1.2v.1c-.1.4-.3.8-.4 1.2-.3.7-.5 1.4-.8 2.1-.2.5-.4 1-.6 1.4s-.3.7-.5 1.1c-.5.9-1 1.9-1.5 2.8-.3.6-.7 1.1-1 1.6-.2.3-.4.6-.6.8s-.4.5-.6.8l-.6.8c-.8 1-1.7 2-2.5 2.9-.2.2-.4.5-.7.7l-.7.7c-.5.5-1 .9-1.5 1.3-1 .9-2 1.7-3.1 2.4-.7.5-1.4 1-2.2 1.5-.4.3-.8.5-1.2.7-.8.5-1.6.9-2.5 1.3l-1.4.6c-.4.2-.9.4-1.3.5-.4.2-.9.3-1.3.5s-.9.3-1.3.5c-1.1.4-2.3.7-3.4.9l-.7.1c-.7.1-1.3.3-2 .4-.3.1-.7.1-1 .1-.6.1-1.2.1-1.8.2h-.6c-.4 0-.9.1-1.4.1h-2.6c-.4 0-.9 0-1.3-.1l-1.2-.1c-.9-.1-1.7-.2-2.6-.3-3.4-.5-6.6-1.5-9.8-2.8-.4-.2-.8-.3-1.2-.5-.7-.3-1.4-.7-2.1-1.1s-1.2-.7-1.8-1l-.7-.5c-1.2-.7-2.3-1.5-3.3-2.4-1-.8-1.9-1.6-2.8-2.5-.2-.2-.5-.4-.7-.7s-.5-.5-.7-.7c-.5-.5-.9-1-1.3-1.5-.9-1-1.7-2-2.4-3.1-.5-.7-1-1.4-1.5-2.2l-.3-.5c-3.8-6.3-5.7-13.5-5.7-20.8V165.8l75.2 121.9c3.8 6.3 5.8 13.4 5.9 20.7z" fill="#c92a00"/><path class="st0" d="M223 25.7l86.4 140.1V309c0 7.3 1.9 14.5 5.7 20.8L225.2 184 223 25.7z"/></svg>